name C:\Users\u0101727\Documents\MyRepositories\upper-imu-dc\Results\main_tracking\Case_22\SHRUG01_orientations_groundFrame.mot
datacolumns 13
datarows 36
range 1.71000000 2.06000000
endheader 
time	radius_imu_[0][0]	radius_imu_[0][1]	radius_imu_[0][2]	radius_imu_[1][0]	radius_imu_[1][1]	radius_imu_[1][2]	radius_imu_[2][0]	radius_imu_[2][1]	radius_imu_[2][2]	radius_imu_x	radius_imu_y	radius_imu_z	
          1.71000000	          0.36160893	         -0.22985365	          0.90355204	         -0.33028590	          0.87470056	          0.35469727	         -0.87186593	         -0.42669220	          0.24038212	         -0.97518681	          1.12798827	          0.56621506	
          1.72000000	          0.36221951	         -0.23052480	          0.90313639	         -0.32950071	          0.87470346	          0.35541966	         -0.87190958	         -0.42632402	          0.24087657	         -0.97517739	          1.12701922	          0.56677142	
          1.73000000	          0.36164573	         -0.23168994	          0.90306818	         -0.32868028	          0.87475557	          0.35605051	         -0.87245724	         -0.42558484	          0.24019970	         -0.97730601	          1.12686037	          0.56977732	
          1.74000000	          0.36025218	         -0.23304858	          0.90327555	         -0.32788728	          0.87487352	          0.35649159	         -0.87333172	         -0.42459944	          0.23876143	         -0.98065985	          1.12734344	          0.57419570	
          1.75000000	          0.35827905	         -0.23439599	          0.90371159	         -0.32716629	          0.87506945	          0.35667307	         -0.87441314	         -0.42345246	          0.23683258	         -0.98463892	          1.12836080	          0.57934133	
          1.76000000	          0.35592800	         -0.23558883	          0.90433023	         -0.32653073	          0.87535417	          0.35655680	         -0.87561004	         -0.42220016	          0.23463606	         -0.98877530	          1.12980794	          0.58469552	
          1.77000000	          0.35344070	         -0.23651318	          0.90506419	         -0.32595132	          0.87574016	          0.35613889	         -0.87683260	         -0.42088085	          0.23243043	         -0.99256756	          1.13153063	          0.58973616	
          1.78000000	          0.35113750	         -0.23706997	          0.90581471	         -0.32534934	          0.87624310	          0.35545159	         -0.87798078	         -0.41951861	          0.23055126	         -0.99539532	          1.13329874	          0.59385169	
          1.79000000	          0.34936042	         -0.23720512	          0.90646623	         -0.32459546	          0.87688149	          0.35456543	         -0.87896819	         -0.41810595	          0.22935198	         -0.99663605	          1.13483907	          0.59647175	
          1.80000000	          0.34766627	         -0.23731038	          0.90708983	         -0.32350961	          0.87766937	          0.35360713	         -0.88003960	         -0.41638954	          0.22836385	         -0.99737062	          1.13631816	          0.59893944	
          1.81000000	          0.35224388	         -0.23471240	          0.90599909	         -0.32187306	          0.87861204	          0.35275858	         -0.87881852	         -0.41587375	          0.23393811	         -0.98521996	          1.13373414	          0.58777290	
          1.82000000	          0.35134582	         -0.23511693	          0.90624287	         -0.31954323	          0.87971772	          0.35212052	         -0.88002741	         -0.41329985	          0.23395512	         -0.98435229	          1.13431044	          0.58974715	
          1.83000000	          0.35820921	         -0.23233494	          0.90427133	         -0.31646757	          0.88099052	          0.35171576	         -0.87837033	         -0.41216038	          0.24205244	         -0.96803061	          1.12966997	          0.57539129	
          1.84000000	          0.36687204	         -0.22922805	          0.90158716	         -0.31263940	          0.88241366	          0.35157180	         -0.87616295	         -0.41085353	          0.25206718	         -0.94877026	          1.12342451	          0.55846803	
          1.85000000	          0.37729946	         -0.22577105	          0.89814951	         -0.30814539	          0.88396120	          0.35165185	         -0.87332213	         -0.40943869	          0.26394777	         -0.92691516	          1.11554264	          0.53923255	
          1.86000000	          0.38894727	         -0.22206711	          0.89409519	         -0.30317726	          0.88560079	          0.35184484	         -0.86994458	         -0.40791842	          0.27712631	         -0.90363887	          1.10640690	          0.51878075	
          1.87000000	          0.40096510	         -0.21829359	          0.88970495	         -0.29800159	          0.88729311	          0.35200281	         -0.86626903	         -0.40627434	          0.29072174	         -0.88045659	          1.09669848	          0.49854938	
          1.88000000	          0.41239705	         -0.21466638	          0.88535135	         -0.29290741	          0.88899440	          0.35198609	         -0.86263197	         -0.40448400	          0.30374130	         -0.85884031	          1.08724919	          0.47993895	
          1.89000000	          0.42237061	         -0.21141331	          0.88142355	         -0.28814220	          0.89066161	          0.35170437	         -0.85940511	         -0.40252491	          0.31527219	         -0.83996681	          1.07886769	          0.46407938	
          1.90000000	          0.43024959	         -0.20875588	          0.87824044	         -0.28385218	          0.89225773	          0.35114681	         -0.85692078	         -0.40037124	          0.32463771	         -0.82460521	          1.07217028	          0.45173536	
          1.91000000	          0.43571103	         -0.20690034	          0.87598410	         -0.28004906	          0.89375463	          0.35039289	         -0.85541126	         -0.39798858	          0.33147651	         -0.81313299	          1.06747232	          0.44333147	
          1.92000000	          0.43874414	         -0.20603144	          0.87467401	         -0.27661462	          0.89513252	          0.34960280	         -0.85497832	         -0.39533380	          0.33574284	         -0.80561872	          1.06476287	          0.43902796	
          1.93000000	          0.43963635	         -0.20628348	          0.87416646	         -0.27333845	          0.89637639	          0.34899206	         -0.85557348	         -0.39237290	          0.33769444	         -0.80184905	          1.06371674	          0.43871680	
          1.94000000	          0.43897208	         -0.20769131	          0.87416694	         -0.26997028	          0.89747247	          0.34879682	         -0.85698282	         -0.38911116	          0.33789487	         -0.80127287	          1.06371772	          0.44192231	
          1.95000000	          0.43758102	         -0.21016274	          0.87427368	         -0.26626756	          0.89840837	          0.34923343	         -0.85885065	         -0.38560865	          0.33716693	         -0.80297574	          1.06393757	          0.44774998	
          1.96000000	          0.43643593	         -0.21346962	          0.87404485	         -0.26203778	          0.89917761	          0.35045090	         -0.86073218	         -0.38198213	          0.33649631	         -0.80570928	          1.06346637	          0.45490593	
          1.97000000	          0.43651047	         -0.21724192	          0.87307764	         -0.25718429	          0.89978870	          0.35247204	         -0.86215709	         -0.37839959	          0.33689598	         -0.80798902	          1.06147914	          0.46178877	
          1.98000000	          0.43857496	         -0.22096694	          0.87110598	         -0.25176154	          0.90028040	          0.35512156	         -0.86270976	         -0.37505840	          0.33920946	         -0.80831131	          1.05744990	          0.46670639	
          1.99000000	          0.44281245	         -0.22404529	          0.86817097	         -0.24603993	          0.90074418	          0.35794452	         -0.86219573	         -0.37210702	          0.34373665	         -0.80564372	          1.05150477	          0.46840406	
          2.00000000	          0.44765608	         -0.22617161	          0.86513030	         -0.24057218	          0.90135230	          0.36012368	         -0.86123694	         -0.36933783	          0.34908524	         -0.80096134	          1.04541011	          0.46782700	
          2.01000000	          0.49928634	         -0.20558047	          0.84169461	         -0.23620015	          0.90235427	          0.36050834	         -0.83362020	         -0.37880528	          0.40197502	         -0.73106796	          1.00041403	          0.39059331	
          2.02000000	          0.48955631	         -0.20896938	          0.84656152	         -0.23359747	          0.90394174	          0.35821999	         -0.84009930	         -0.37312349	          0.39371566	         -0.73822745	          1.00949195	          0.40344050	
          2.03000000	          0.47140317	         -0.21336033	          0.85571982	         -0.23223051	          0.90601905	          0.35383395	         -0.85079259	         -0.36552270	          0.37755148	         -0.75298130	          1.02694037	          0.42501971	
          2.04000000	          0.50534435	         -0.19360078	          0.84091963	         -0.23157630	          0.90833355	          0.34828519	         -0.83126380	         -0.37074101	          0.41418788	         -0.69917963	          0.99898035	          0.36585885	
          2.05000000	          0.48466113	         -0.19705683	          0.85221605	         -0.23117622	          0.91079286	          0.34207298	         -0.84360011	         -0.36280156	          0.39587104	         -0.71262428	          1.02020644	          0.38617175	
          2.06000000	          0.47943891	         -0.19471026	          0.85570220	         -0.23006422	          0.91308497	          0.33666940	         -0.84688181	         -0.35827887	          0.39297260	         -0.70838527	          1.02690631	          0.38577202	
